<?xml version="1.0" encoding="utf-8"?>
<!-- Generator: Adobe Illustrator 17.0.0, SVG Export Plug-In . SVG Version: 6.00 Build 0)  -->
<!DOCTYPE svg PUBLIC "-//W3C//DTD SVG 1.1//EN" "http://www.w3.org/Graphics/SVG/1.1/DTD/svg11.dtd">
<svg version="1.1" id="Слой_1" xmlns="http://www.w3.org/2000/svg" xmlns:xlink="http://www.w3.org/1999/xlink" x="0px" y="0px"
	 width="106.969px" height="76px" viewBox="0 0 106.969 76" enable-background="new 0 0 106.969 76" xml:space="preserve">
<g>
	<g>
		<path d="M86.175,25.978c0.01,2.149-0.112,4.114-0.373,6.066c-0.276,2.059-0.568,4.117-0.911,6.166
			c-0.248,1.484-0.817,2.879-1.378,4.269c-0.364,0.902-0.703,1.818-1.133,2.688c-0.924,1.872-2.48,2.928-4.509,3.324
			c-1.832,0.358-3.658,0.748-5.496,1.072c-1.597,0.282-3.2,0.55-4.811,0.718c-2.253,0.234-4.515,0.381-6.775,0.541
			c-1.568,0.111-3.14,0.176-4.71,0.268c-1.342,0.079-2.682,0.201-4.024,0.238c-0.705,0.019-1.416-0.093-2.122-0.168
			c-0.977-0.104-1.953-0.229-2.929-0.344c-1.107-0.131-2.214-0.261-3.321-0.392c-1.107-0.132-2.214-0.263-3.32-0.398
			c-1.228-0.149-2.456-0.301-3.684-0.454c-1.045-0.13-2.091-0.251-3.134-0.396c-1.283-0.179-2.588-0.238-3.83-0.658
			c-1.93-0.653-3.332-1.94-4.366-3.66c-0.903-1.502-1.458-3.144-1.897-4.828c-0.428-1.64-0.708-3.308-0.909-4.989
			c-0.212-1.769-0.436-3.537-0.616-5.31c-0.178-1.759-0.24-3.525-0.131-5.293c0.067-1.096,0.117-2.194,0.234-3.284
			c0.147-1.369,0.335-2.734,0.544-4.095c0.185-1.203,0.385-2.407,0.647-3.595c0.386-1.743,1.094-3.38,1.784-5.02
			c0.32-0.76,0.621-1.529,1.12-2.198c0.933-1.249,2.176-1.977,3.704-2.26c1.878-0.348,3.749-0.737,5.63-1.075
			c1.587-0.285,3.179-0.552,4.777-0.77c1.678-0.229,3.363-0.409,5.049-0.572c1.057-0.102,2.121-0.155,3.183-0.19
			c1.432-0.048,2.865-0.09,4.297-0.075c1.793,0.019,3.586,0.073,5.376,0.157c1.948,0.091,3.894,0.223,5.839,0.354
			c1.402,0.094,2.806,0.183,4.202,0.335c1.421,0.155,2.837,0.359,4.248,0.587c1.514,0.246,3.023,0.523,4.527,0.827
			c3.395,0.686,5.608,2.669,6.512,6.043c0.86,3.21,1.502,6.467,2.082,9.738C85.949,21.601,86.204,23.864,86.175,25.978z
			 M54.036,16.817c-3.651,0-7.302-0.001-10.954,0.001c-0.958,0-1.424,0.47-1.425,1.426c-0.002,4.153-0.004,8.305-0.004,12.458
			c0,1.179-0.003,2.358,0.01,3.537c0.007,0.686,0.337,1.111,0.95,1.247c0.178,0.04,0.366,0.05,0.549,0.05
			c1.873-0.005,3.747-0.024,5.62-0.022c4.442,0.003,8.885,0.018,13.327,0.023c1.029,0.001,2.058,0.003,3.086-0.031
			c0.629-0.021,0.979-0.395,1.014-1.025c0.079-1.403,0.142-2.807,0.216-4.211c0.038-0.719,0.088-1.437,0.129-2.156
			c0.037-0.649,0.11-1.299,0.095-1.946c-0.024-1-0.117-1.998-0.17-2.998c-0.093-1.745-0.177-3.491-0.266-5.237
			c-0.033-0.641-0.331-0.983-0.96-1.092c-0.137-0.024-0.28-0.021-0.421-0.021C61.233,16.817,57.635,16.817,54.036,16.817z
			 M23.087,26.203c0.084,0.072,0.134,0.119,0.188,0.16c1.19,0.918,2.377,1.839,3.572,2.751c1.74,1.327,3.484,2.649,5.229,3.969
			c0.416,0.314,1.007,0.269,1.366-0.096c0.68-0.689,1.36-1.376,2.033-2.072c1.601-1.656,3.197-3.317,4.795-4.977
			c0.034-0.035,0.055-0.082,0.086-0.129c-0.037-0.043-0.063-0.078-0.094-0.107c-1.025-0.95-2.048-1.903-3.077-2.849
			c-1.262-1.159-2.527-2.316-3.798-3.466c-0.432-0.39-0.957-0.405-1.405-0.06c-2.291,1.764-4.581,3.529-6.87,5.296
			C24.445,25.139,23.783,25.66,23.087,26.203z M67.932,26.186c0.104,0.113,0.196,0.216,0.291,0.316
			c1.108,1.155,2.22,2.306,3.322,3.466c0.86,0.905,1.705,1.824,2.561,2.732c0.332,0.352,0.706,0.695,1.227,0.578
			c0.336-0.076,0.675-0.252,0.951-0.463c2.225-1.706,4.432-3.435,6.652-5.148c0.627-0.484,1.24-0.975,1.687-1.652
			c-0.04-0.036-0.076-0.075-0.117-0.107c-2.85-2.176-5.7-4.352-8.553-6.525c-0.506-0.385-1.147-0.337-1.59,0.119
			c-1.44,1.482-2.877,2.967-4.311,4.455C69.348,24.691,68.649,25.432,67.932,26.186z M44.232,9.87
			c0.086,0.055,0.149,0.1,0.215,0.137c2.926,1.652,5.857,3.296,8.775,4.962c0.529,0.302,1.009,0.277,1.511-0.009
			c2.905-1.654,5.811-3.308,8.715-4.963c0.058-0.033,0.111-0.075,0.183-0.125c-0.093-0.074-0.168-0.134-0.244-0.192
			c-1.557-1.19-3.112-2.383-4.672-3.569c-1.322-1.005-2.656-1.996-3.974-3.006c-0.394-0.302-1.113-0.339-1.491-0.05
			c-2.373,1.815-4.769,3.6-7.156,5.396C45.477,8.916,44.865,9.387,44.232,9.87z M44.218,42.541c0.092,0.053,0.141,0.074,0.182,0.105
			c2.892,2.193,5.782,4.387,8.675,6.579c0.598,0.453,1.181,0.45,1.782-0.009c2.62-1.999,5.238-4.001,7.856-6.002
			c0.304-0.232,0.605-0.467,0.93-0.719c-0.115-0.068-0.196-0.119-0.279-0.165c-1.237-0.681-2.485-1.342-3.708-2.047
			c-1.208-0.697-2.397-1.429-3.583-2.162c-0.746-0.461-1.513-0.814-2.421-0.717c-0.635,0.068-1.191,0.337-1.732,0.654
			c-2.111,1.238-4.224,2.474-6.337,3.708C45.154,42.016,44.719,42.256,44.218,42.541z M42.711,42.071
			c-0.438-1.308-0.841-2.594-1.302-3.859c-0.426-1.168-1.281-1.882-2.51-2.127c-1.427-0.284-2.854-0.566-4.281-0.844
			c-0.3-0.059-0.605-0.144-0.905-0.137c-0.548,0.012-0.83,0.401-1.033,0.856c-0.417,0.937-0.828,1.877-1.244,2.815
			c-0.838,1.891-1.683,3.78-2.514,5.674c-0.194,0.443-0.346,0.904-0.536,1.406C33.176,44.589,37.908,43.34,42.711,42.071z
			 M65.357,10.283c0.008,0.082,0.005,0.128,0.017,0.169c0.454,1.528,0.911,3.054,1.365,4.582c0.206,0.692,0.678,1.043,1.381,1.156
			c1.099,0.177,2.192,0.394,3.29,0.571c0.786,0.127,1.576,0.243,2.369,0.314c0.532,0.047,0.986-0.189,1.29-0.633
			c0.252-0.368,0.498-0.75,0.679-1.155c1.267-2.841,2.517-5.69,3.771-8.537c0.027-0.06,0.043-0.126,0.077-0.229
			C74.827,7.78,70.099,9.03,65.357,10.283z M65.266,42.078c0.104,0.032,0.185,0.061,0.268,0.083
			c4.437,1.167,8.875,2.333,13.314,3.494c0.099,0.026,0.26,0.018,0.317-0.043c0.118-0.126,0.271-0.24,0.156-0.492
			c-1.401-3.07-2.789-6.145-4.172-9.223c-0.117-0.26-0.296-0.428-0.541-0.543c-0.344-0.161-0.701-0.211-1.077-0.136
			c-0.266,0.053-0.538,0.077-0.804,0.131c-1.563,0.314-3.13,0.611-4.685,0.96c-0.604,0.136-1.066,0.504-1.269,1.143
			c-0.281,0.884-0.595,1.758-0.884,2.64C65.674,40.747,65.476,41.407,65.266,42.078z M28.307,6.51
			c0.038,0.104,0.057,0.163,0.081,0.218c1.453,3.296,2.906,6.592,4.363,9.887c0.283,0.639,0.555,0.773,1.255,0.64
			c0.56-0.106,1.118-0.22,1.676-0.333c1.125-0.227,2.251-0.448,3.373-0.686c1.261-0.266,2.087-1.018,2.468-2.255
			c0.27-0.878,0.559-1.751,0.824-2.632c0.177-0.587-0.013-0.988-0.568-1.248c-0.142-0.066-0.294-0.113-0.446-0.153
			c-3.166-0.837-6.333-1.672-9.5-2.507C30.675,7.136,29.517,6.829,28.307,6.51z M31.773,34.198
			c-3.011-2.319-5.975-4.601-8.996-6.927c0.344,3.328,0.679,6.572,1.019,9.857C26.459,36.15,29.086,35.185,31.773,34.198z
			 M84.099,37.115c0.023-0.096,0.046-0.161,0.054-0.228c0.125-1.17,0.249-2.339,0.37-3.509c0.182-1.755,0.361-3.51,0.539-5.265
			c0.011-0.108,0.113-0.249-0.074-0.311c-0.174-0.058-0.323-0.172-0.532-0.01c-2.509,1.943-5.026,3.874-7.541,5.809
			c-0.246,0.189-0.49,0.382-0.773,0.602C78.827,35.184,81.454,36.146,84.099,37.115z M22.799,25.034
			c0.023,0.012,0.046,0.023,0.069,0.035c2.947-2.293,5.894-4.586,8.88-6.909c-2.682-0.968-5.305-1.914-7.959-2.872
			C23.456,18.564,23.128,21.799,22.799,25.034z M64.449,9.169c1.245-2.014,2.481-4.011,3.746-6.057
			c-0.275-0.013-0.5-0.02-0.724-0.034c-1.306-0.084-2.612-0.172-3.918-0.256c-0.885-0.057-1.771-0.107-2.657-0.165
			c-1.499-0.098-2.997-0.201-4.496-0.301c-0.137-0.009-0.274-0.04-0.327,0.162c-0.043,0.171-0.03,0.275,0.127,0.394
			c2.027,1.531,4.047,3.07,6.07,4.607C62.99,8.066,63.712,8.61,64.449,9.169z M51.894,49.678c-2.802-2.146-5.609-4.296-8.437-6.462
			c-1.244,2.019-2.474,4.015-3.726,6.048c0.414,0.028,0.771,0.053,1.127,0.076c1.121,0.074,2.243,0.146,3.364,0.223
			c1.471,0.101,2.942,0.205,4.413,0.308c0.902,0.063,1.804,0.122,2.705,0.192C51.747,50.095,51.749,50.104,51.894,49.678z
			 M64.445,43.241c-0.067,0.049-0.103,0.073-0.137,0.099c-2.126,1.616-4.251,3.233-6.376,4.85c-0.58,0.441-1.159,0.885-1.743,1.322
			c-0.124,0.093-0.18,0.194-0.083,0.327c0.058,0.079,0.145,0.201,0.214,0.198c0.745-0.031,1.49-0.08,2.234-0.13
			c1.716-0.115,3.432-0.237,5.149-0.35c1.218-0.08,2.436-0.15,3.654-0.227c0.265-0.017,0.53-0.044,0.836-0.07
			C66.935,47.238,65.698,45.253,64.445,43.241z M52.295,2.417c-0.01-0.021-0.02-0.042-0.03-0.063
			c-4.172,0.245-8.344,0.49-12.57,0.738c1.274,2.045,2.52,4.044,3.78,6.066C46.431,6.899,49.363,4.658,52.295,2.417z M76.167,18.178
			c0.062,0.057,0.086,0.082,0.114,0.103c2.054,1.581,4.108,3.161,6.163,4.741c0.696,0.536,1.399,1.064,2.087,1.61
			c0.19,0.15,0.309,0.012,0.443-0.057c0.057-0.029,0.116-0.132,0.11-0.195c-0.077-0.812-0.159-1.624-0.252-2.435
			c-0.184-1.604-0.373-3.207-0.569-4.809c-0.035-0.284-0.047-0.599-0.182-0.835c-0.234-0.411-0.953-0.613-1.403-0.457
			c-1.282,0.444-2.564,0.89-3.842,1.347C77.956,17.506,77.082,17.839,76.167,18.178z M76.072,17.074
			c0.079-0.018,0.104-0.021,0.127-0.029c2.291-0.85,4.583-1.697,6.872-2.553c0.402-0.15,0.647-0.659,0.553-1.082
			c-0.063-0.282-0.132-0.563-0.201-0.843c-0.486-1.996-1.256-3.865-2.489-5.525c-0.069-0.093-0.144-0.182-0.241-0.305
			C79.144,10.203,77.617,13.618,76.072,17.074z M31.854,17.118c-0.052-0.127-0.076-0.189-0.104-0.251
			c-1.365-3.066-2.737-6.128-4.085-9.2c-0.176-0.401-0.369-0.649-0.838-0.647c-0.168,0.001-0.247,0.002-0.308,0.17
			c-0.739,2.041-1.488,4.079-2.227,6.12c-0.183,0.504,0.051,0.989,0.562,1.183c1.547,0.587,3.096,1.171,4.645,1.752
			C30.26,16.531,31.023,16.811,31.854,17.118z M76.078,35.321c0.046,0.117,0.071,0.188,0.102,0.256
			c1.381,3.099,2.771,6.193,4.132,9.3c0.17,0.389,0.385,0.529,0.78,0.501c0.143-0.01,0.226-0.04,0.273-0.181
			c0.074-0.225,0.164-0.444,0.245-0.666c0.652-1.785,1.306-3.57,1.949-5.358c0.054-0.149,0.088-0.339,0.043-0.483
			c-0.133-0.423-0.381-0.756-0.829-0.92c-2.09-0.764-4.175-1.539-6.263-2.309C76.382,35.416,76.251,35.378,76.078,35.321z
			 M26.688,45.526c0.17-0.02,0.317-0.013,0.445-0.06c0.107-0.039,0.234-0.122,0.278-0.219c1.357-3.033,2.704-6.071,4.056-9.106
			c0.062-0.14,0.07-0.242-0.061-0.344c-0.128-0.1-0.187-0.28-0.429-0.188c-2.038,0.777-4.082,1.537-6.123,2.309
			c-0.541,0.205-0.753,0.699-0.551,1.25c0.382,1.045,0.763,2.09,1.154,3.132C25.859,43.372,26.273,44.441,26.688,45.526z
			 M65.706,9.109c0.1-0.024,0.133-0.031,0.165-0.04c4.216-1.117,8.431-2.234,12.648-3.349c0.338-0.089,0.158-0.351,0.196-0.539
			c0.042-0.204-0.115-0.218-0.256-0.245c-2.521-0.487-5.043-0.973-7.563-1.464c-0.578-0.113-1.152-0.225-1.645,0.226
			c-0.18,0.164-0.362,0.339-0.493,0.541c-0.604,0.927-1.193,1.862-1.781,2.799C66.558,7.707,66.151,8.383,65.706,9.109z
			 M78.683,47.226c0.012-0.35-0.029-0.549-0.391-0.641c-3.519-0.9-7.032-1.824-10.547-2.742c-0.589-0.154-1.177-0.309-1.813-0.475
			c0.76,1.611,1.63,3.089,2.655,4.477c0.756,1.026,1.784,1.304,2.982,1.091c0.922-0.164,1.847-0.328,2.755-0.552
			C75.784,48.024,77.232,47.614,78.683,47.226z M29.123,47.384c0.069,0.02,0.127,0.043,0.187,0.054
			c2.782,0.516,5.565,1.026,8.346,1.55c0.574,0.108,1.002-0.073,1.307-0.552c0.904-1.422,1.802-2.848,2.702-4.273
			c0.171-0.271,0.339-0.545,0.539-0.868c-0.133,0.03-0.208,0.045-0.282,0.065c-4.07,1.076-8.141,2.153-12.211,3.23
			c-0.555,0.147-0.555,0.148-0.599,0.722C29.111,47.327,29.117,47.344,29.123,47.384z M42.152,9.062
			c-0.036-0.089-0.048-0.14-0.075-0.182c-0.994-1.594-1.984-3.191-2.991-4.777C38.943,3.88,38.724,3.7,38.522,3.521
			c-0.188-0.167-0.418-0.192-0.668-0.146c-1.905,0.349-3.812,0.688-5.717,1.036c-0.946,0.173-1.891,0.358-2.858,0.543
			c0.021,0.162,0.061,0.308,0.054,0.453c-0.013,0.28,0.141,0.361,0.383,0.424c3.604,0.931,7.206,1.87,10.808,2.808
			C41.055,8.776,41.585,8.914,42.152,9.062z M51.144,36.63c-0.049-0.007-0.083-0.016-0.117-0.016
			c-2.437,0.002-4.874,0.009-7.31,0.006c-0.502,0-0.891,0.221-1.238,0.553c-0.116,0.111-0.162,0.228-0.107,0.399
			c0.291,0.908,0.566,1.821,0.854,2.731c0.139,0.439,0.293,0.874,0.446,1.325c0.106-0.059,0.183-0.1,0.259-0.143
			c2.241-1.279,4.481-2.557,6.722-3.836C51.225,37.322,51.225,37.322,51.144,36.63z M42.112,15.534c3.063,0,6.093,0,9.139,0
			c-0.001-0.185,0.204-0.356-0.088-0.52c-2.043-1.145-4.077-2.306-6.115-3.461c-0.471-0.267-0.944-0.531-1.443-0.812
			C43.106,12.345,42.613,13.928,42.112,15.534z M64.297,10.745c-0.292,0.166-0.55,0.314-0.809,0.461
			c-2.197,1.246-4.395,2.492-6.591,3.741c-0.071,0.04-0.165,0.102-0.179,0.167c-0.047,0.234,0.134,0.429,0.373,0.429
			c2.815,0,5.629,0,8.444,0c0.077,0,0.155,0,0.273,0C65.3,13.931,64.803,12.351,64.297,10.745z M65.815,36.896
			c-3.086,0-6.133,0-9.184,0c-0.077,0.252-0.018,0.397,0.222,0.532c2.393,1.348,4.777,2.712,7.164,4.071
			c0.072,0.041,0.147,0.074,0.24,0.121C64.779,40.037,65.293,38.478,65.815,36.896z M40.214,35.213c0-2.314,0-4.594,0-6.909
			c-0.074,0.053-0.123,0.082-0.167,0.119c-0.743,0.631-1.486,1.263-2.228,1.895c-1.21,1.032-2.42,2.063-3.626,3.099
			c-0.05,0.043-0.103,0.13-0.093,0.185c0.063,0.356,0.251,0.521,0.615,0.588c1.368,0.255,2.735,0.516,4.103,0.772
			C39.278,35.049,39.741,35.128,40.214,35.213z M74.038,34.01c-2.156-1.824-4.257-3.601-6.4-5.415
			c-0.056,0.79-0.117,1.514-0.158,2.239c-0.054,0.973-0.091,1.947-0.139,2.921c-0.023,0.466,0.355,1.095,0.786,1.276
			c0.075,0.031,0.171,0.036,0.252,0.022c1.08-0.181,2.161-0.359,3.239-0.556C72.402,34.354,73.181,34.184,74.038,34.01z
			 M73.963,18.364c-0.538-0.11-1.013-0.213-1.492-0.303c-1.361-0.256-2.723-0.508-4.085-0.754c-0.096-0.017-0.227-0.01-0.302,0.043
			c-0.413,0.292-0.765,0.639-0.741,1.196c0.06,1.343,0.13,2.685,0.203,4.027c0.021,0.398,0.063,0.795,0.1,1.25
			C69.765,21.992,71.842,20.197,73.963,18.364z M34.226,18.784c2.013,1.652,4.024,3.302,6.069,4.98c0-2.244,0-4.427,0-6.606
			c-0.036-0.008-0.054-0.018-0.069-0.015c-1.78,0.344-3.557,0.706-5.342,1.02C34.493,18.231,34.325,18.417,34.226,18.784z"/>
	</g>
</g>
<path display="none" d="M105.014,74.01c-1.308,1.247-3.193,1.871-5.654,1.871h-3.994V61.603h4.414c2.272,0,4.039,0.612,5.302,1.836
	c1.263,1.224,1.895,2.946,1.895,5.166C106.977,70.962,106.323,72.764,105.014,74.01z M99.721,63.556H97.7v10.362h1.66
	c3.437,0,5.156-1.745,5.156-5.235C104.516,65.265,102.918,63.556,99.721,63.556z M81.213,64.504h-0.078l0.049,0.634
	c0.091,1.211,0.137,2.318,0.137,3.321v7.422h-2.119V61.603h2.832l7.002,11.319h0.058c-0.013-0.15-0.039-0.695-0.078-1.636
	s-0.059-1.675-0.059-2.202v-7.481h2.139v14.278h-2.861L81.213,64.504z M79.81,41.313h-8.339v8.826c0,0.475-0.393,0.861-0.878,0.861
	c-0.484,0-0.877-0.386-0.877-0.861v-8.826H54.065v8.826c0,0.475-0.393,0.861-0.878,0.861c-0.484,0-0.877-0.386-0.877-0.861v-8.826
	H36.659v8.826c0,0.475-0.393,0.861-0.877,0.861c-0.485,0-0.878-0.386-0.878-0.861v-8.826h-8.34c-0.282,0-0.547-0.133-0.712-0.358
	c-0.165-0.225-0.209-0.513-0.12-0.776l9.217-27.108c0.119-0.351,0.455-0.588,0.833-0.588c0.377,0,0.712,0.237,0.832,0.588
	l2.771,8.15l4.267-12.549c0.119-0.352,0.455-0.589,0.832-0.589c0.378,0,0.714,0.237,0.833,0.589l2.145,6.308l4.893-14.391
	C52.474,0.237,52.81,0,53.187,0c0.378,0,0.713,0.237,0.833,0.589l4.893,14.39l2.145-6.307c0.119-0.352,0.455-0.589,0.832-0.589
	c0.378,0,0.713,0.237,0.833,0.589l4.267,12.549l2.771-8.15c0.119-0.351,0.455-0.588,0.832-0.588c0.378,0,0.713,0.237,0.833,0.588
	l9.217,27.108c0.089,0.263,0.044,0.551-0.12,0.776C80.358,41.18,80.093,41.313,79.81,41.313z M35.782,16.065L27.783,39.59h7.121
	v-5.364c0-0.475,0.393-0.861,0.878-0.861c0.484,0,0.877,0.386,0.877,0.861v5.364h2.435l2.343-6.892L35.782,16.065z M44.484,11.666
	L40.31,23.942l2.052,6.035l4.174-12.276L44.484,11.666z M53.187,3.582L40.944,39.59H52.31v-4.799l-4.508-4.665
	c-0.333-0.346-0.319-0.891,0.033-1.218s0.907-0.313,1.241,0.032l3.234,3.348v-6.68c0-0.476,0.393-0.862,0.877-0.862
	c0.485,0,0.878,0.386,0.878,0.862v6.735l3.229-3.398c0.331-0.347,0.886-0.367,1.24-0.042c0.355,0.324,0.374,0.869,0.044,1.217
	l-4.513,4.749v4.721h11.366L53.187,3.582z M61.89,11.666l-2.052,6.035l4.175,12.276l2.052-6.035L61.89,11.666z M70.593,16.065
	l-5.655,16.633l2.343,6.892h2.435v-5.364c0-0.475,0.393-0.861,0.877-0.861c0.485,0,0.878,0.386,0.878,0.861v5.364h7.121
	L70.593,16.065z M18.791,76.076c-2.155,0-3.81-0.64-4.965-1.919c-1.156-1.279-1.734-3.097-1.734-5.454s0.581-4.167,1.743-5.43
	c1.163-1.263,2.821-1.894,4.976-1.894c2.122,0,3.763,0.641,4.922,1.923c1.159,1.283,1.738,3.09,1.738,5.42
	c0,2.325-0.581,4.131-1.743,5.42C22.566,75.431,20.92,76.076,18.791,76.076z M21.941,64.738c-0.7-0.905-1.743-1.357-3.13-1.357
	c-1.4,0-2.456,0.452-3.169,1.357s-1.069,2.233-1.069,3.984c0,1.758,0.354,3.091,1.064,3.999c0.71,0.909,1.761,1.363,3.154,1.363
	c1.387,0,2.434-0.45,3.14-1.348s1.06-2.236,1.06-4.014C22.991,66.971,22.641,65.643,21.941,64.738z M3.809,70.539H2.325v5.342
	h-2.334V61.603h4.111c1.784,0,3.12,0.365,4.009,1.094c0.888,0.729,1.333,1.803,1.333,3.223c0,1.491-0.488,2.633-1.465,3.427
	C7.002,70.142,5.612,70.539,3.809,70.539z M6.29,64.162c-0.502-0.404-1.283-0.606-2.344-0.606H2.325v5.02h1.24
	c1.198,0,2.077-0.208,2.637-0.625c0.559-0.417,0.839-1.068,0.839-1.953C7.041,65.177,6.791,64.566,6.29,64.162z M37.163,62.638
	c0.885,0.691,1.328,1.732,1.328,3.125c0,1.778-0.925,3.044-2.774,3.799l4.033,6.319h-2.656l-3.418-5.704h-2.304v5.704h-2.334V61.603
	h4.033C34.913,61.603,36.277,61.948,37.163,62.638z M31.372,63.576v4.668h1.621c1.087,0,1.875-0.202,2.363-0.606
	c0.488-0.403,0.732-1.002,0.732-1.797c0-0.807-0.263-1.386-0.791-1.738c-0.527-0.351-1.321-0.527-2.382-0.527
	C32.915,63.576,31.372,63.576,31.372,63.576z M43.607,50.139v-6.242c0-0.476,0.393-0.862,0.877-0.862
	c0.485,0,0.878,0.386,0.878,0.862v6.242c0,0.475-0.393,0.861-0.878,0.861C44,51,43.607,50.614,43.607,50.139z M51.452,63.605h-4.2
	v12.276h-2.334V63.605h-4.199v-2.002h10.733C51.452,61.603,51.452,63.605,51.452,63.605z M61.89,51
	c-0.484,0-0.877-0.386-0.877-0.861v-6.242c0-0.476,0.393-0.862,0.877-0.862c0.485,0,0.878,0.386,0.878,0.862v6.242
	C62.768,50.614,62.375,51,61.89,51z M56.473,73.879h6.045v2.002h-8.379V61.603h2.334V73.879z M71.475,61.545l5.342,14.336h-2.481
	l-1.425-3.965h-5.459l-1.397,3.965h-2.461l5.342-14.336H71.475z M72.295,69.904l-1.338-3.887c-0.097-0.26-0.232-0.67-0.405-1.23
	c-0.172-0.56-0.291-0.97-0.356-1.231c-0.176,0.801-0.433,1.677-0.772,2.627l-1.289,3.721H72.295z"/>
<g enable-background="new    ">
	<path fill="none" stroke="#000000" stroke-miterlimit="10" d="M14.808,69.269c-0.115-2.161-0.253-4.76-0.23-6.691h-0.069
		c-0.529,1.816-1.173,3.748-1.955,5.887l-2.736,7.52H8.301l-2.506-7.382c-0.736-2.185-1.357-4.185-1.794-6.024H3.955
		c-0.046,1.932-0.161,4.53-0.299,6.853l-0.414,6.646H1.333l1.081-15.499h2.552l2.645,7.497c0.644,1.908,1.173,3.61,1.563,5.22h0.069
		c0.391-1.563,0.943-3.266,1.632-5.22l2.76-7.497h2.552l0.966,15.499h-1.955L14.808,69.269z"/>
	<path fill="none" stroke="#000000" stroke-miterlimit="10" d="M22.515,71.2l-1.609,4.875h-2.07l5.266-15.499h2.415l5.289,15.499
		h-2.139L28.011,71.2H22.515z M27.597,69.637l-1.518-4.461c-0.345-1.012-0.575-1.932-0.805-2.828h-0.046
		c-0.23,0.919-0.483,1.862-0.782,2.805l-1.518,4.484H27.597z"/>
	<path fill="none" stroke="#000000" stroke-miterlimit="10" d="M34.085,60.783c1.012-0.207,2.46-0.321,3.84-0.321
		c2.139,0,3.518,0.391,4.484,1.265c0.782,0.689,1.219,1.747,1.219,2.943c0,2.046-1.288,3.403-2.92,3.955v0.068
		c1.196,0.414,1.909,1.519,2.276,3.128c0.506,2.161,0.874,3.656,1.196,4.254H42.11c-0.253-0.437-0.598-1.771-1.035-3.702
		c-0.46-2.139-1.288-2.943-3.104-3.013h-1.886v6.715h-2V60.783z M36.086,67.843h2.047c2.138,0,3.495-1.173,3.495-2.943
		c0-2-1.449-2.874-3.564-2.897c-0.966,0-1.655,0.093-1.978,0.185V67.843z"/>
	<path fill="none" stroke="#000000" stroke-miterlimit="10" d="M49.08,71.2l-1.609,4.875h-2.07l5.266-15.499h2.415l5.289,15.499
		h-2.139L54.576,71.2H49.08z M54.162,69.637l-1.518-4.461c-0.345-1.012-0.575-1.932-0.805-2.828h-0.046
		c-0.23,0.919-0.483,1.862-0.782,2.805l-1.518,4.484H54.162z"/>
	<path fill="none" stroke="#000000" stroke-miterlimit="10" d="M60.65,60.576h2.001v7.474h0.069
		c0.413-0.598,0.827-1.149,1.219-1.655l4.736-5.818h2.483l-5.61,6.577l6.048,8.922h-2.369l-5.104-7.611l-1.472,1.701v5.91H60.65
		V60.576z"/>
	<path fill="none" stroke="#000000" stroke-miterlimit="10" d="M75.852,71.2l-1.609,4.875h-2.069l5.266-15.499h2.415l5.288,15.499
		h-2.138L81.348,71.2H75.852z M80.934,69.637l-1.518-4.461c-0.345-1.012-0.574-1.932-0.805-2.828h-0.046
		c-0.23,0.919-0.483,1.862-0.782,2.805l-1.518,4.484H80.934z"/>
	<path fill="none" stroke="#000000" stroke-miterlimit="10" d="M88.594,62.278H83.88v-1.702h11.475v1.702h-4.737v13.797h-2.023
		V62.278z"/>
	<path fill="none" stroke="#000000" stroke-miterlimit="10" d="M97.862,71.2l-1.609,4.875h-2.069l5.266-15.499h2.415l5.288,15.499
		h-2.138l-1.656-4.875H97.862z M102.944,69.637l-1.518-4.461c-0.345-1.012-0.574-1.932-0.805-2.828h-0.046
		c-0.23,0.919-0.483,1.862-0.782,2.805l-1.518,4.484H102.944z"/>
	<g enable-background="new    ">
		<path d="M14.808,69.269c-0.115-2.161-0.253-4.76-0.23-6.691h-0.069c-0.529,1.816-1.173,3.748-1.955,5.887l-2.736,7.52H8.301
			l-2.506-7.382c-0.736-2.185-1.357-4.185-1.794-6.024H3.955c-0.046,1.932-0.161,4.53-0.299,6.853l-0.414,6.646H1.333l1.081-15.499
			h2.552l2.645,7.497c0.644,1.908,1.173,3.61,1.563,5.22h0.069c0.391-1.563,0.943-3.266,1.632-5.22l2.76-7.497h2.552l0.966,15.499
			h-1.955L14.808,69.269z"/>
		<path d="M22.515,71.2l-1.609,4.875h-2.07l5.266-15.499h2.415l5.289,15.499h-2.139L28.011,71.2H22.515z M27.597,69.637
			l-1.518-4.461c-0.345-1.012-0.575-1.932-0.805-2.828h-0.046c-0.23,0.919-0.483,1.862-0.782,2.805l-1.518,4.484H27.597z"/>
		<path d="M34.085,60.783c1.012-0.207,2.46-0.321,3.84-0.321c2.139,0,3.518,0.391,4.484,1.265c0.782,0.689,1.219,1.747,1.219,2.943
			c0,2.046-1.288,3.403-2.92,3.955v0.068c1.196,0.414,1.909,1.519,2.276,3.128c0.506,2.161,0.874,3.656,1.196,4.254H42.11
			c-0.253-0.437-0.598-1.771-1.035-3.702c-0.46-2.139-1.288-2.943-3.104-3.013h-1.886v6.715h-2V60.783z M36.086,67.843h2.047
			c2.138,0,3.495-1.173,3.495-2.943c0-2-1.449-2.874-3.564-2.897c-0.966,0-1.655,0.093-1.978,0.185V67.843z"/>
		<path d="M49.08,71.2l-1.609,4.875h-2.07l5.266-15.499h2.415l5.289,15.499h-2.139L54.576,71.2H49.08z M54.162,69.637l-1.518-4.461
			c-0.345-1.012-0.575-1.932-0.805-2.828h-0.046c-0.23,0.919-0.483,1.862-0.782,2.805l-1.518,4.484H54.162z"/>
		<path d="M60.65,60.576h2.001v7.474h0.069c0.413-0.598,0.827-1.149,1.219-1.655l4.736-5.818h2.483l-5.61,6.577l6.048,8.922h-2.369
			l-5.104-7.611l-1.472,1.701v5.91H60.65V60.576z"/>
		<path d="M75.852,71.2l-1.609,4.875h-2.069l5.266-15.499h2.415l5.288,15.499h-2.138L81.348,71.2H75.852z M80.934,69.637
			l-1.518-4.461c-0.345-1.012-0.574-1.932-0.805-2.828h-0.046c-0.23,0.919-0.483,1.862-0.782,2.805l-1.518,4.484H80.934z"/>
		<path d="M88.594,62.278H83.88v-1.702h11.475v1.702h-4.737v13.797h-2.023V62.278z"/>
		<path d="M97.862,71.2l-1.609,4.875h-2.069l5.266-15.499h2.415l5.288,15.499h-2.138l-1.656-4.875H97.862z M102.944,69.637
			l-1.518-4.461c-0.345-1.012-0.574-1.932-0.805-2.828h-0.046c-0.23,0.919-0.483,1.862-0.782,2.805l-1.518,4.484H102.944z"/>
	</g>
</g>
</svg>
